<svg width="18" height="19" viewBox="0 0 18 19" fill="none" xmlns="http://www.w3.org/2000/svg">
<path fill-rule="evenodd" clip-rule="evenodd" d="M13.2 3.98672C13.92 3.98672 14.4 3.38672 14.4 2.78672V1.58672C14.4 0.866719 13.92 0.386719 13.2 0.386719C12.48 0.386719 12 0.866719 12 1.58672V2.78672C12 3.38672 12.48 3.98672 13.2 3.98672ZM16.8 1.58672H15.6V2.78672C15.6 4.10672 14.52 5.18672 13.2 5.18672C11.88 5.18672 10.8 4.10672 10.8 2.78672V1.58672H7.2V2.78672C7.2 4.10672 6.12 5.18672 4.8 5.18672C3.48 5.18672 2.4 4.10672 2.4 2.78672V1.58672H1.2C0.48 1.58672 0 2.18672 0 2.78672V17.1867C0 17.9067 0.48 18.3867 1.2 18.3867H16.8C17.52 18.3867 18 17.9067 18 17.1867V2.78672C18 2.06672 17.4 1.58672 16.8 1.58672ZM6 15.9867H2.4V12.3867H6V15.9867ZM6 11.1867H2.4V7.58672H6V11.1867ZM10.8 15.9867H7.2V12.3867H10.8V15.9867ZM10.8 11.1867H7.2V7.58672H10.8V11.1867ZM15.6 15.9867H12V12.3867H15.6V15.9867ZM15.6 11.1867H12V7.58672H15.6V11.1867ZM4.8 3.98672C5.52 3.98672 6 3.38672 6 2.78672V1.58672C6 0.866719 5.52 0.386719 4.8 0.386719C4.08 0.386719 3.6 0.866719 3.6 1.58672V2.78672C3.6 3.38672 4.08 3.98672 4.8 3.98672Z" fill="#9A9A9A"/>
</svg>
